<?xml version="1.0" standalone="no"?><!DOCTYPE svg PUBLIC "-//W3C//DTD SVG 1.1//EN" "http://www.w3.org/Graphics/SVG/1.1/DTD/svg11.dtd"><svg t="1652271520341" class="icon" viewBox="0 0 1024 1024" version="1.1" xmlns="http://www.w3.org/2000/svg" p-id="11079" xmlns:xlink="http://www.w3.org/1999/xlink" width="200" height="200"><defs><style type="text/css"></style></defs><path d="M484.352 329.728l157.696 135.68c29.696 25.6 29.696 71.168 0 96.768l-157.696 135.68c-41.472 35.328-105.472 6.144-105.472-48.128v-271.36c0-54.784 64-84.48 105.472-48.64z" p-id="11080" fill="#FFD700"></path><path d="M485.376 956.928C240.64 956.928 41.984 757.76 41.984 513.536S240.64 70.144 485.376 70.144c30.208 0 54.272 24.576 54.272 54.272S515.584 179.2 485.376 179.2c-184.32 0-334.336 150.016-334.336 334.336s150.016 334.336 334.336 334.336 334.336-150.016 334.336-334.336c0-30.208 24.576-54.272 54.272-54.272s54.272 24.576 54.272 54.272c0.512 244.224-198.656 443.392-442.88 443.392z" p-id="11081" fill="#FFD700"></path><path d="M960.512 600.064c-13.824 0-27.648-5.12-38.4-15.872l-48.128-48.128-48.128 48.128c-20.992 20.992-55.808 20.992-76.8 0s-20.992-55.808 0-76.8l87.04-87.04c20.48-20.48 56.32-20.48 76.8 0l87.04 87.04c20.992 20.992 20.992 55.808 0 76.8-11.776 10.24-25.6 15.872-39.424 15.872z" p-id="11082" fill="#FFD700"></path></svg>